<svg width="107" height="18" fill="none" xmlns="http://www.w3.org/2000/svg">
  <path d="M4.727 14H.291V.91h4.526c1.3 0 2.416.261 3.35.785a5.256 5.256 0 0 1 2.16 2.244c.502.976.754 2.143.754 3.503 0 1.363-.254 2.535-.76 3.515a5.257 5.257 0 0 1-2.18 2.257c-.946.524-2.084.786-3.414.786Zm-2.064-2.052h1.95c.911 0 1.672-.166 2.281-.498.61-.337 1.068-.838 1.374-1.503.307-.669.46-1.504.46-2.505 0-1.002-.153-1.833-.46-2.493-.306-.665-.76-1.161-1.361-1.49-.597-.332-1.338-.498-2.224-.498h-2.02v8.987ZM12.332 14V4.182h2.243v1.636h.103c.179-.567.486-1.003.92-1.31.44-.311.94-.467 1.502-.467.128 0 .271.007.429.02.162.008.296.023.402.044v2.129a2.432 2.432 0 0 0-.466-.09 4.293 4.293 0 0 0-.607-.045 2.34 2.34 0 0 0-1.138.275 2.01 2.01 0 0 0-.787.748c-.191.32-.287.688-.287 1.106V14h-2.314Zm10.115.192c-.959 0-1.79-.211-2.493-.633a4.297 4.297 0 0 1-1.636-1.77c-.384-.76-.576-1.646-.576-2.66 0-1.014.192-1.902.576-2.665a4.289 4.289 0 0 1 1.636-1.777c.703-.422 1.534-.633 2.493-.633.959 0 1.79.21 2.493.633a4.247 4.247 0 0 1 1.63 1.777c.388.763.581 1.651.581 2.665s-.193 1.9-.581 2.66a4.255 4.255 0 0 1-1.63 1.77c-.703.422-1.534.633-2.493.633Zm.013-1.854c.52 0 .954-.143 1.304-.428.35-.29.61-.678.78-1.164a4.77 4.77 0 0 0 .262-1.623c0-.601-.088-1.144-.262-1.63-.17-.49-.43-.88-.78-1.17-.35-.29-.784-.435-1.304-.435-.533 0-.976.145-1.33.435-.35.29-.611.68-.786 1.17a4.899 4.899 0 0 0-.256 1.63c0 .596.085 1.138.256 1.623.175.486.437.874.786 1.164.354.285.797.428 1.33.428Zm5.755 5.344v-13.5h2.276v1.623h.134c.12-.238.288-.492.505-.76.218-.273.512-.505.882-.697.371-.196.844-.294 1.42-.294.758 0 1.442.194 2.051.582.614.383 1.1.952 1.458 1.706.362.75.543 1.67.543 2.762 0 1.078-.177 1.994-.53 2.748-.354.755-.836 1.33-1.445 1.726-.61.396-1.3.595-2.071.595-.563 0-1.03-.094-1.4-.282a2.849 2.849 0 0 1-.895-.677 4.386 4.386 0 0 1-.518-.76h-.096v5.228h-2.314Zm2.27-8.591c0 .635.09 1.191.268 1.668.183.477.445.85.786 1.119.345.264.763.396 1.253.396.512 0 .94-.136 1.285-.409.345-.277.605-.654.78-1.131.179-.482.268-1.03.268-1.643 0-.61-.087-1.15-.262-1.624-.175-.473-.434-.843-.78-1.112-.345-.268-.775-.403-1.29-.403-.495 0-.915.13-1.26.39s-.607.625-.786 1.093c-.175.47-.262 1.021-.262 1.656Zm8.08 8.59v-13.5h2.276v1.624h.134c.12-.238.288-.492.505-.76.218-.273.512-.505.882-.697.371-.196.844-.294 1.42-.294.758 0 1.442.194 2.051.582.614.383 1.1.952 1.458 1.706.362.75.543 1.67.543 2.762 0 1.078-.177 1.994-.53 2.748-.354.755-.836 1.33-1.445 1.726-.61.396-1.3.595-2.071.595-.563 0-1.03-.094-1.4-.282a2.849 2.849 0 0 1-.895-.677 4.392 4.392 0 0 1-.518-.76h-.096v5.228h-2.313Zm2.27-8.59c0 .635.09 1.191.268 1.668.183.477.445.85.786 1.119.345.264.763.396 1.253.396.512 0 .94-.136 1.285-.409.345-.277.605-.654.78-1.131.179-.482.268-1.03.268-1.643 0-.61-.087-1.15-.262-1.624-.175-.473-.434-.843-.78-1.112-.345-.268-.775-.403-1.29-.403-.495 0-.915.13-1.26.39s-.607.625-.786 1.093c-.175.47-.262 1.021-.262 1.656Zm12.427 5.1c-.984 0-1.834-.204-2.55-.613a4.155 4.155 0 0 1-1.643-1.751c-.384-.759-.575-1.652-.575-2.679 0-1.01.191-1.896.575-2.659a4.35 4.35 0 0 1 1.623-1.79c.695-.43 1.511-.645 2.449-.645.605 0 1.176.098 1.713.294.54.192 1.018.49 1.431.895.418.405.746.92.985 1.547.238.622.358 1.363.358 2.224v.71H49.58v-1.56h5.83a2.49 2.49 0 0 0-.288-1.182 2.091 2.091 0 0 0-.786-.825c-.332-.2-.72-.3-1.163-.3-.473 0-.889.115-1.247.345a2.379 2.379 0 0 0-.837.895c-.196.366-.296.769-.3 1.208v1.361c0 .571.104 1.061.313 1.47.208.405.5.716.875.934.375.213.814.32 1.317.32a2.8 2.8 0 0 0 .914-.141c.273-.098.51-.241.71-.429.2-.187.351-.42.453-.696l2.161.242a3.368 3.368 0 0 1-.78 1.496c-.38.422-.865.75-1.457.985-.593.23-1.27.345-2.033.345ZM64.334.91l2.883 4.794h.102L70.215.91h2.704l-4.034 6.546L72.982 14h-2.748l-2.915-4.762h-.102L64.302 14h-2.736l4.136-6.545L61.617.909h2.717ZM73.778 14V4.182h2.212V5.85h.115a2.604 2.604 0 0 1 1.016-1.317c.473-.32 1.038-.479 1.694-.479.665 0 1.225.162 1.681.486.46.32.784.756.972 1.31h.102c.217-.545.584-.98 1.1-1.304.52-.328 1.135-.492 1.847-.492.903 0 1.64.285 2.211.857.571.57.857 1.404.857 2.499V14h-2.32V7.768c0-.61-.162-1.055-.486-1.336-.324-.286-.72-.428-1.19-.428-.558 0-.994.174-1.31.524-.31.345-.466.794-.466 1.348V14h-2.27V7.672c0-.507-.153-.912-.46-1.215-.302-.302-.698-.453-1.189-.453-.332 0-.635.085-.907.255-.273.166-.49.403-.652.71a2.216 2.216 0 0 0-.243 1.06V14h-2.314Zm18.08.198c-.623 0-1.183-.11-1.681-.332A2.744 2.744 0 0 1 89 12.869c-.285-.44-.428-.98-.428-1.624 0-.554.102-1.012.307-1.374.204-.362.483-.652.837-.87a4.225 4.225 0 0 1 1.196-.492c.447-.115.91-.198 1.387-.25a54.65 54.65 0 0 0 1.4-.159c.357-.051.617-.128.78-.23.165-.107.249-.27.249-.492v-.039c0-.481-.143-.854-.429-1.118-.285-.264-.696-.396-1.233-.396-.567 0-1.017.123-1.35.37-.327.247-.549.54-.664.876l-2.16-.307a3.45 3.45 0 0 1 .843-1.496 3.671 3.671 0 0 1 1.439-.907 5.502 5.502 0 0 1 1.879-.307c.473 0 .944.055 1.413.166.468.111.897.294 1.284.55.388.251.7.594.934 1.029.238.435.358.978.358 1.63V14h-2.225v-1.349h-.077c-.14.273-.338.529-.594.767a2.859 2.859 0 0 1-.953.57c-.379.14-.824.21-1.335.21Zm.6-1.7c.465 0 .868-.092 1.209-.275.34-.188.602-.435.786-.742.187-.306.281-.64.281-1.003V9.321c-.072.06-.196.115-.37.166-.171.051-.363.096-.576.134-.213.039-.424.073-.633.103l-.543.076a4.043 4.043 0 0 0-.927.23 1.54 1.54 0 0 0-.646.448c-.157.188-.236.43-.236.729 0 .426.155.747.466.965.312.217.708.326 1.19.326Zm13.77-5.721-2.109.23a1.702 1.702 0 0 0-.313-.6 1.557 1.557 0 0 0-.588-.455c-.248-.115-.55-.172-.908-.172-.482 0-.887.104-1.215.313-.324.209-.483.48-.479.812a.85.85 0 0 0 .313.697c.217.179.575.326 1.074.44l1.675.359c.929.2 1.619.517 2.071.952.456.435.686 1.004.69 1.707a2.667 2.667 0 0 1-.543 1.636c-.354.469-.846.835-1.477 1.1-.63.264-1.355.396-2.173.396-1.202 0-2.169-.252-2.902-.755-.733-.507-1.17-1.212-1.31-2.115l2.256-.218c.102.444.32.778.652 1.004.332.226.765.339 1.298.339.549 0 .99-.113 1.323-.339.336-.226.505-.505.505-.837a.873.873 0 0 0-.326-.697c-.213-.183-.546-.324-.998-.422L101.07 9.8c-.942-.196-1.639-.526-2.09-.99-.452-.47-.676-1.061-.672-1.777-.004-.605.16-1.13.493-1.573.336-.447.803-.792 1.399-1.035.601-.247 1.294-.371 2.078-.371 1.15 0 2.056.245 2.716.735.665.49 1.076 1.153 1.234 1.988Z" fill="url(#a)"/>
  <defs>
    <linearGradient id="a" x1="-23.855" y1="6.621" x2="143.331" y2="6.621" gradientUnits="userSpaceOnUse">
      <stop stop-color="#62BFAD"/>
      <stop offset="1" stop-color="#BEED82" stop-opacity="0"/>
    </linearGradient>
  </defs>
</svg>
